<?xml version="1.0" encoding="UTF-8" standalone="no"?>
<svg
   width="100%"
   height="100%"
   viewBox="0 0 689 128"
   version="1.1"
   xml:space="preserve"
   style="fill-rule:evenodd;clip-rule:evenodd;stroke-linejoin:round;stroke-miterlimit:1.41421;"
   id="svg10"
   sodipodi:docname="vaccine-course.svg"
   inkscape:version="1.2.2 (b0a8486541, 2022-12-01)"
   xmlns:inkscape="http://www.inkscape.org/namespaces/inkscape"
   xmlns:sodipodi="http://sodipodi.sourceforge.net/DTD/sodipodi-0.dtd"
   xmlns="http://www.w3.org/2000/svg"
   xmlns:svg="http://www.w3.org/2000/svg"><defs
   id="defs14"><filter
     style="color-interpolation-filters:sRGB;"
     inkscape:label="Greyscale"
     id="filter973"
     x="0"
     y="0"
     width="1"
     height="1"><feColorMatrix
       values="0.21 0.72 0.072 0.53 0 0.21 0.72 0.072 0.53 0 0.21 0.72 0.072 0.53 0 0 0 0 1 0 "
       id="feColorMatrix971" /></filter></defs><sodipodi:namedview
   id="namedview12"
   pagecolor="#ffffff"
   bordercolor="#000000"
   borderopacity="0.25"
   inkscape:showpageshadow="2"
   inkscape:pageopacity="0.0"
   inkscape:pagecheckerboard="0"
   inkscape:deskcolor="#d1d1d1"
   showgrid="false"
   inkscape:zoom="1.7793904"
   inkscape:cx="344.5"
   inkscape:cy="64.347879"
   inkscape:window-width="1920"
   inkscape:window-height="1061"
   inkscape:window-x="1366"
   inkscape:window-y="19"
   inkscape:window-maximized="1"
   inkscape:current-layer="svg10" />
    <g
   transform="matrix(0.233333,0,0,0.233333,0,0)"
   id="g8"
   style="filter:url(#filter973)">
        <g
   transform="matrix(4.16667,0,0,4.16667,0,0)"
   id="g6">
            <path
   d="M707.154,55.362L707.154,49.469L676.25,49.469L676.25,103.047L707.999,103.047L707.999,97.23L681.455,97.23L681.455,78.861L704.421,78.861L704.421,72.966L681.455,72.966L681.455,55.362L707.154,55.362ZM649.38,49.239C639.946,49.239 633.635,54.673 633.635,63.093C633.635,82.305 659.269,74.803 659.204,88.887C659.204,94.016 655.105,97.154 648.535,97.154C643.394,97.154 637.604,94.399 633.375,89.576L631.033,95.087C635.327,99.909 641.833,103.277 648.469,103.277C658.228,103.277 664.93,97.537 664.93,88.581C664.994,69.14 639.361,76.335 639.361,62.557C639.361,58.041 643.2,55.439 649.054,55.439C652.698,55.439 657.513,56.74 661.612,59.955L663.823,54.214C660.05,51.229 654.65,49.239 649.38,49.239ZM593.364,80.238L593.364,55.362L605.465,55.362C613.727,55.362 618.412,59.496 618.412,67.609C618.412,75.952 613.727,80.238 605.465,80.238L593.364,80.238ZM617.956,103.047L623.877,103.047L613.207,84.83C619.778,82.305 623.421,76.335 623.421,67.456C623.421,56.051 616.85,49.469 605.465,49.469L588.159,49.469L588.159,103.047L593.364,103.047L593.364,86.132L605.465,86.132C606.506,86.132 607.547,86.055 608.523,85.979L617.956,103.047ZM574.756,49.469L569.551,49.469L569.551,81.003C569.551,91.413 564.347,97.46 555.694,97.46C547.041,97.46 541.706,91.413 541.706,81.003L541.706,49.469L536.501,49.469L536.501,81.003C536.501,94.934 543.723,103.353 555.694,103.353C567.599,103.353 574.756,94.934 574.756,81.003L574.756,49.469ZM503.581,55.133C513.729,55.133 522.057,64.471 522.057,76.258C522.057,88.045 513.729,97.46 503.581,97.46C493.431,97.46 484.974,88.045 484.974,76.258C484.974,64.471 493.431,55.133 503.581,55.133ZM503.581,49.316C490.244,49.316 479.704,61.103 479.704,76.258C479.704,91.336 490.244,103.353 503.581,103.353C516.853,103.353 527.393,91.336 527.393,76.258C527.393,61.179 516.853,49.316 503.581,49.316ZM458.364,49.316C445.157,49.316 434.617,61.179 434.617,76.181C434.617,91.336 445.027,103.353 458.169,103.353C464.48,103.353 470.595,100.062 475.085,95.087L471.897,90.878C468.319,94.857 463.439,97.307 458.429,97.307C448.15,97.307 439.887,87.892 439.887,76.181C439.887,64.394 448.15,55.056 458.429,55.056C463.439,55.056 468.383,57.582 471.897,61.792L475.019,57.123C470.661,52.301 464.61,49.316 458.364,49.316ZM428.046,61.638L428.046,49.392L390.767,49.392L390.767,103.047L428.697,103.047L428.697,90.801L404.299,90.801L404.299,82.305L425.834,82.305L425.834,70.058L404.299,70.058L404.299,61.638L428.046,61.638ZM382.44,103.047L382.44,49.392L370.078,49.392L370.078,79.396L350.755,49.392L339.175,49.392L339.175,103.047L351.601,103.047L351.601,73.196L370.924,103.047L382.44,103.047ZM330.847,103.047L330.847,49.392L317.315,49.392L317.315,103.047L330.847,103.047ZM293.698,48.933C279.58,48.933 269.17,60.491 269.17,76.105C269.17,91.949 279.385,103.735 293.242,103.735C300.139,103.735 307.621,99.68 312.566,93.403L304.758,83.606C301.635,87.357 297.406,89.805 293.893,89.805C287.712,89.805 283.028,83.836 283.028,75.952C283.028,68.068 287.712,62.175 293.893,62.175C297.666,62.175 301.895,65.006 304.758,69.293L312.566,58.424C307.946,52.607 300.595,48.933 293.698,48.933ZM248.872,48.933C234.754,48.933 224.344,60.491 224.344,76.105C224.344,91.949 234.559,103.735 248.416,103.735C255.313,103.735 262.795,99.68 267.74,93.403L259.932,83.606C256.808,87.357 252.58,89.805 249.067,89.805C242.886,89.805 238.202,83.836 238.202,75.952C238.202,68.068 242.886,62.175 249.067,62.175C252.84,62.175 257.069,65.006 259.932,69.293L267.74,58.424C263.12,52.607 255.769,48.933 248.872,48.933ZM203.59,82.841L198.125,65.313L192.53,82.841L203.59,82.841ZM207.169,94.475L188.757,94.475L186.024,103.047L172.101,103.047L191.554,49.392L205.476,49.392L224.279,103.047L209.836,103.047L207.169,94.475ZM158.308,103.047L175.94,49.392L162.082,49.392L151.672,86.514L141.263,49.392L126.819,49.392L144.256,103.047L158.308,103.047Z"
   style="fill:rgb(0,95,148);"
   id="path2" />
            <path
   d="M27.366,87.52C32.728,92.913 38.11,98.286 43.494,103.653C61.029,86.129 78.549,68.585 96.092,51.066C94.747,46.665 91.75,42.961 88.382,39.911C85.922,37.748 83.126,35.865 79.962,34.916C62.432,52.454 44.888,69.976 27.366,87.52ZM113.952,14.98C110.957,18.03 107.843,20.976 104.923,24.093C105.657,24.697 106.337,25.365 106.962,26.08C113.515,19.636 119.964,13.086 126.487,6.606C126.93,6.264 127.009,5.696 127.148,5.191C127.536,3.649 127.969,2.119 128.354,0.575C123.554,5.378 118.752,10.178 113.952,14.98ZM80.31,41.439C79.405,41.817 79.185,43.151 79.908,43.806C82.291,46.228 84.716,48.611 87.107,51.025C87.594,51.576 88.483,51.718 89.083,51.264C89.79,50.797 89.92,49.69 89.32,49.084C86.933,46.668 84.52,44.279 82.123,41.874C81.685,41.363 80.929,41.129 80.31,41.439ZM73.279,48.557C72.279,48.851 71.944,50.283 72.722,50.984C75.102,53.406 77.527,55.786 79.919,58.2C80.386,58.733 81.234,58.896 81.837,58.488C82.661,58.01 82.745,56.741 82.02,56.132C79.657,53.775 77.301,51.411 74.94,49.054C74.537,48.584 73.877,48.353 73.279,48.557ZM65.9,55.827C65.019,56.23 64.84,57.537 65.552,58.181C67.938,60.594 70.354,62.978 72.746,65.386C73.254,65.978 74.225,66.079 74.817,65.552C75.513,65.003 75.499,63.864 74.828,63.299C72.469,60.95 70.123,58.586 67.764,56.238C67.319,55.708 66.522,55.482 65.9,55.827ZM58.849,62.945C57.885,63.285 57.61,64.685 58.377,65.361C60.766,67.783 63.187,70.175 65.585,72.588C66.139,73.219 67.207,73.246 67.77,72.61C68.343,72.023 68.264,71.009 67.653,70.479C65.283,68.126 62.932,65.753 60.562,63.399C60.146,62.915 59.45,62.695 58.849,62.945ZM51.484,70.216C50.65,70.65 50.497,71.909 51.193,72.539C53.525,74.915 55.909,77.241 58.243,79.617C58.646,80.065 59.255,80.402 59.874,80.212C60.913,79.997 61.355,78.557 60.603,77.804C58.211,75.39 55.797,72.99 53.392,70.591C52.938,70.047 52.107,69.838 51.484,70.216ZM44.461,77.317C43.518,77.665 43.265,79.038 44.004,79.712C46.383,82.131 48.804,84.506 51.191,86.92C51.729,87.553 52.783,87.626 53.368,87.012C53.976,86.439 53.925,85.387 53.297,84.846C50.932,82.498 48.587,80.13 46.222,77.78C45.798,77.279 45.081,77.043 44.461,77.317ZM37.4,84.452C36.378,84.734 36.041,86.189 36.827,86.895C39.205,89.314 41.626,91.687 44.01,94.098C44.488,94.644 45.361,94.796 45.967,94.369C46.712,93.905 46.847,92.747 46.209,92.133C43.828,89.733 41.428,87.344 39.036,84.952C38.637,84.49 37.992,84.262 37.4,84.452ZM8.95,114.264C7.835,113.337 7.009,111.842 5.457,111.619C4.326,111.402 3.245,112.013 2.53,112.85C1.769,113.72 0.733,114.391 0.23,115.46C-0.25,116.547 0.043,117.903 0.896,118.724C4.704,122.54 8.52,126.347 12.33,130.161C13.292,131.15 14.978,131.28 16.089,130.469C16.926,129.775 17.641,128.948 18.427,128.198C19.223,127.475 19.62,126.323 19.335,125.269C18.978,123.874 17.619,123.121 16.744,122.075C21.473,117.33 26.222,112.603 30.948,107.858C28.38,105.251 25.781,102.672 23.262,100.02C18.424,104.694 13.722,109.518 8.95,114.264ZM97.403,24.24C97.799,23.8 98.46,23.694 99.003,23.903C102.635,25.237 105.617,28.197 107.033,31.793C107.318,32.377 107.264,33.138 106.769,33.592C103.22,37.169 99.639,40.716 96.092,44.293C97.443,46.402 98.618,48.685 99.118,51.155C99.264,51.704 99.055,52.288 98.642,52.666C80.957,70.36 63.253,88.039 45.575,105.743C46.731,106.907 47.902,108.054 49.043,109.23C50.177,110.372 50.006,112.405 48.804,113.435C47.598,114.465 46.657,116.177 44.891,116.226C43.831,116.302 42.907,115.677 42.243,114.908C33.41,106.075 24.58,97.237 15.738,88.409C14.902,87.632 14.554,86.379 14.926,85.289C15.176,84.455 15.891,83.906 16.475,83.305C17.029,82.775 17.527,82.177 18.139,81.71C19.188,80.965 20.745,81.044 21.707,81.903C22.957,83.022 24.02,84.338 25.319,85.4C42.977,67.704 60.67,50.046 78.339,32.364C78.723,31.915 79.339,31.733 79.908,31.894C82.362,32.41 84.61,33.592 86.724,34.905C90.287,31.355 93.834,27.79 97.403,24.24Z"
   style="fill:rgb(0,95,148);"
   id="path4" />
        </g>
    </g>
</svg>
